<?xml version="1.0" encoding="UTF-8" standalone="no"?>
<svg
   version="1.0"
   width="1280.000000pt"
   height="1132.000000pt"
   viewBox="0 0 1280.000000 1132.000000"
   preserveAspectRatio="xMidYMid meet"
   id="svg1"
   sodipodi:docname="arrow_right.svg"
   inkscape:version="1.3 (0e150ed6c4, 2023-07-21)"
   xmlns:inkscape="http://www.inkscape.org/namespaces/inkscape"
   xmlns:sodipodi="http://sodipodi.sourceforge.net/DTD/sodipodi-0.dtd"
   xmlns="http://www.w3.org/2000/svg"
   xmlns:svg="http://www.w3.org/2000/svg">
  <defs
     id="defs1" />
  <sodipodi:namedview
     id="namedview1"
     pagecolor="#ffffff"
     bordercolor="#000000"
     borderopacity="0.25"
     inkscape:showpageshadow="2"
     inkscape:pageopacity="0.0"
     inkscape:pagecheckerboard="0"
     inkscape:deskcolor="#d1d1d1"
     inkscape:document-units="pt"
     inkscape:zoom="0.53864841"
     inkscape:cx="853.06109"
     inkscape:cy="755.59492"
     inkscape:window-width="1350"
     inkscape:window-height="1212"
     inkscape:window-x="2563"
     inkscape:window-y="18"
     inkscape:window-maximized="0"
     inkscape:current-layer="svg1" />
  <metadata
     id="metadata1">&#10;Created by potrace 1.15, written by Peter Selinger 2001-2017&#10;</metadata>
  <g
     transform="translate(0.000000,1132.000000) scale(0.100000,-0.100000)"
     fill="#000000"
     stroke="none"
     id="g1"
     style="fill:#42b8eb;fill-opacity:1">
    <path
       d="M6400 9705 l0 -1615 -3200 0 -3200 0 0 -2430 0 -2430 3200 0 3200 0 2 -1613 3 -1613 566 501 c311 275 1242 1099 2070 1830 827 732 2009 1777 2627 2323 617 546 1122 997 1122 1002 0 5 -269 247 -597 537 -501 443 -2945 2604 -4803 4247 -261 231 -591 523 -732 648 l-258 229 0 -1616z"
       id="path1"
       style="fill:#42b8eb;fill-opacity:1" />
  </g>
</svg>
